<mxfile host="app.diagrams.net" modified="2023-08-04T13:42:30.548Z" agent="Mozilla/5.0 (X11; Linux x86_64; rv:109.0) Gecko/20100101 Firefox/115.0" version="21.6.6" etag="Vasv98VAthPM2cejLtGb" type="github">
  <diagram name="Page-1" id="Whq-guROYfTDy8Zs0p2C">
    <mxGraphModel>
      <root>
        <mxCell id="0" />
        <mxCell id="1" parent="0" />
      </root>
    </mxGraphModel>
  </diagram>
</mxfile>
